<?xml version="1.0" encoding="iso-8859-1"?>
<!-- Uploaded to: SVG Repo, www.svgrepo.com, Generator: SVG Repo Mixer Tools -->
<svg fill="#000000" height="800px" width="800px" version="1.1" id="Layer_1" xmlns="http://www.w3.org/2000/svg" xmlns:xlink="http://www.w3.org/1999/xlink" 
	 viewBox="0 0 512 512" xml:space="preserve">
<g>
	<g>
		<path d="M358.622,452.736l-85.963-20.01v-39.563h6.664c9.2,0,16.659-7.622,16.659-16.823c0-0.642-0.044-0.947-0.116-2.058h-79.734
			c-0.071,1.111-0.116,1.416-0.116,2.058c0,9.201,7.459,16.823,16.659,16.823h6.664v40.04l-84.813,19.523
			c-7.563,1.742-12.922,8.474-12.922,16.235v26.38c0,9.2,7.459,16.659,16.659,16.659s16.659-7.459,16.659-16.659v-8.31v-4.809
			l17.903-4.12l47.053-10.83c1.841,7.194,8.35,12.52,16.12,12.52c7.927,0,14.547-5.541,16.232-12.958l48.088,11.194l17.867,4.159
			v4.8v8.353c0,9.2,7.459,16.659,16.659,16.659s16.659-7.459,16.659-16.659v-26.38C371.505,461.214,366.167,454.492,358.622,452.736
			z"/>
	</g>
</g>
<g>
	<g>
		<path d="M422.27,197.731l-41.466-29.566c-2.824-2.014-6.063-3.019-9.287-3.091l1.391,38.38l4.349,3.101l18.683,13.322v62.426
			v67.545c0,9.2,7.459,16.659,16.659,16.659s16.659-7.459,16.659-16.659V211.295C429.258,205.91,426.655,200.857,422.27,197.731z"/>
	</g>
</g>
<g>
	<g>
		<path d="M131.196,168.165L89.73,197.731c-4.385,3.125-6.988,8.179-6.988,13.564v138.553c0,9.2,7.459,16.659,16.659,16.659
			s16.659-7.459,16.659-16.659v-67.544v-62.426l18.683-13.322l4.349-3.101l1.391-38.38
			C137.258,165.146,134.02,166.151,131.196,168.165z"/>
	</g>
</g>
<g>
	<g>
		<path d="M344.034,20.237C343.622,8.874,334.394,0,323.024,0H188.976c-11.37,0-20.598,8.874-21.01,20.237l-9.567,264.084h195.202
			L344.034,20.237z"/>
	</g>
</g>
<g>
	<g>
		<path d="M354.267,306.534H157.733c-6.454,0-11.685,5.231-11.685,11.685v22.166c0,6.453,5.231,11.685,11.685,11.685h196.535
			c6.453,0,11.685-5.231,11.685-11.685v-22.166C365.952,311.766,360.721,306.534,354.267,306.534z"/>
	</g>
</g>
</svg>