<?xml version="1.0" encoding="iso-8859-1"?>
<!-- Uploaded to: SVG Repo, www.svgrepo.com, Generator: SVG Repo Mixer Tools -->
<svg fill="#000000" height="800px" width="800px" version="1.1" id="Layer_1" xmlns="http://www.w3.org/2000/svg" xmlns:xlink="http://www.w3.org/1999/xlink" 
	 viewBox="0 0 512 512" xml:space="preserve">
<g>
	<g>
		<path d="M464,120c-8.832,0-16,7.152-16,16v64H336v-64c0-8.848-7.168-16-16-16c-8.832,0-16,7.152-16,16v80c0,8.848,7.168,16,16,16
			h144c8.832,0,16-7.152,16-16v-80C480,127.152,472.832,120,464,120z"/>
	</g>
</g>
<g>
	<g>
		<path d="M416,152h-32c-8.832,0-16,7.152-16,16s7.168,16,16,16h32c8.832,0,16-7.152,16-16S424.832,152,416,152z"/>
	</g>
</g>
<g>
	<g>
		<path d="M464,200H320c-8.832,0-16,7.152-16,16v80c0,8.848,7.168,16,16,16h144c8.832,0,16-7.152,16-16v-80
			C480,207.152,472.832,200,464,200z M448,280H336v-48h112V280z"/>
	</g>
</g>
<g>
	<g>
		<path d="M416,232h-32c-8.832,0-16,7.152-16,16c0,8.848,7.168,16,16,16h32c8.832,0,16-7.152,16-16S424.832,232,416,232z"/>
	</g>
</g>
<g>
	<g>
		<path d="M464,280H320c-8.832,0-16,7.152-16,16v80c0,8.848,7.168,16,16,16h144c8.832,0,16-7.152,16-16v-80
			C480,287.152,472.832,280,464,280z M448,360H336v-48h112V360z"/>
	</g>
</g>
<g>
	<g>
		<path d="M416,312h-32c-8.832,0-16,7.152-16,16c0,8.848,7.168,16,16,16h32c8.832,0,16-7.152,16-16C432,319.152,424.832,312,416,312
			z"/>
	</g>
</g>
<g>
	<g>
		<path d="M48,120c-8.832,0-16,7.152-16,16v224c0,8.848,7.168,16,16,16c8.832,0,16-7.152,16-16V136C64,127.152,56.832,120,48,120z"
			/>
	</g>
</g>
<g>
	<g>
		<path d="M496,120H16c-8.832,0-16,7.152-16,16s7.168,16,16,16h480c8.832,0,16-7.152,16-16S504.832,120,496,120z"/>
	</g>
</g>
</svg>